<svg width="37" height="26" viewBox="0 0 37 26" fill="none" xmlns="http://www.w3.org/2000/svg">
<path d="M37 12.888C37 12.7999 37 12.6999 36.9959 12.5839C36.9917 12.2598 36.9835 11.8957 36.9752 11.5075C36.9422 10.3912 36.8844 9.27885 36.7935 8.23053C36.6696 6.78609 36.4879 5.58172 36.2402 4.67744C35.9787 3.73375 35.4662 2.87308 34.7539 2.18146C34.0415 1.48984 33.1543 0.991489 32.1809 0.736226C31.0123 0.432133 28.7246 0.244075 25.5036 0.128039C23.9715 0.072022 22.3321 0.0360108 20.6927 0.0160047C20.1187 0.00800222 19.5861 0.00400123 19.107 0H17.893C17.4139 0.00400123 16.8812 0.00800222 16.3073 0.0160047C14.6679 0.0360108 13.0285 0.072022 11.4964 0.128039C8.27545 0.248076 5.98359 0.436134 4.81908 0.736226C3.84536 0.990862 2.95781 1.489 2.24537 2.18072C1.53294 2.87244 1.02064 3.73344 0.759821 4.67744C0.507924 5.58172 0.330357 6.78609 0.206473 8.23053C0.115625 9.27885 0.0578124 10.3912 0.0247767 11.5075C0.0123883 11.8957 0.00825887 12.2598 0.0041294 12.5839C0.0041294 12.6999 0 12.7999 0 12.888V13.112C0 13.2001 -6.30722e-08 13.3001 0.0041294 13.4161C0.00825887 13.7402 0.0165178 14.1043 0.0247767 14.4925C0.0578124 15.6088 0.115625 16.7211 0.206473 17.7695C0.330357 19.2139 0.512054 20.4183 0.759821 21.3226C1.28839 23.2391 2.84107 24.7516 4.81908 25.2638C5.98359 25.5679 8.27545 25.7559 11.4964 25.872C13.0285 25.928 14.6679 25.964 16.3073 25.984C16.8812 25.992 17.4139 25.996 17.893 26H19.107C19.5861 25.996 20.1187 25.992 20.6927 25.984C22.3321 25.964 23.9715 25.928 25.5036 25.872C28.7246 25.7519 31.0164 25.5639 32.1809 25.2638C34.1589 24.7516 35.7116 23.2432 36.2402 21.3226C36.4921 20.4183 36.6696 19.2139 36.7935 17.7695C36.8844 16.7211 36.9422 15.6088 36.9752 14.4925C36.9876 14.1043 36.9917 13.7402 36.9959 13.4161C36.9959 13.3001 37 13.2001 37 13.112V12.888ZM34.0268 13.096C34.0268 13.1801 34.0268 13.2721 34.0227 13.3801C34.0185 13.6922 34.0103 14.0363 34.002 14.4084C33.9731 15.4728 33.9153 16.5371 33.8286 17.5254C33.7171 18.8138 33.5602 19.8701 33.3661 20.5783C33.11 21.5026 32.3585 22.2348 31.4087 22.4789C30.5415 22.703 28.357 22.883 25.3879 22.9911C23.8848 23.0471 22.2661 23.0831 20.6514 23.1031C20.0857 23.1111 19.5613 23.1151 19.0905 23.1151H17.9095L16.3485 23.1031C14.7339 23.0831 13.1193 23.0471 11.6121 22.9911C8.64297 22.879 6.45435 22.703 5.59129 22.4789C4.64152 22.2308 3.88996 21.5026 3.63393 20.5783C3.43984 19.8701 3.28292 18.8138 3.17143 17.5254C3.08471 16.5371 3.03103 15.4728 2.99799 14.4084C2.9856 14.0363 2.98147 13.6882 2.97734 13.3801C2.97734 13.2721 2.97321 13.1761 2.97321 13.096V12.904C2.97321 12.8199 2.97321 12.7279 2.97734 12.6199C2.98147 12.3078 2.98973 11.9637 2.99799 11.5916C3.0269 10.5272 3.08471 9.46291 3.17143 8.47461C3.28292 7.18621 3.43984 6.12989 3.63393 5.42167C3.88996 4.49738 4.64152 3.76516 5.59129 3.52108C6.45848 3.29701 8.64297 3.11696 11.6121 3.00892C13.1152 2.95291 14.7339 2.9169 16.3485 2.89689C16.9143 2.88889 17.4387 2.88489 17.9095 2.88489H19.0905L20.6514 2.89689C22.2661 2.9169 23.8807 2.95291 25.3879 3.00892C28.357 3.12096 30.5456 3.29701 31.4087 3.52108C32.3585 3.76916 33.11 4.49738 33.3661 5.42167C33.5602 6.12989 33.7171 7.18621 33.8286 8.47461C33.9153 9.46291 33.969 10.5272 34.002 11.5916C34.0144 11.9637 34.0185 12.3118 34.0227 12.6199C34.0227 12.7279 34.0268 12.8239 34.0268 12.904V13.096ZM14.8248 18.3616L24.4051 12.96L14.8248 7.63835V18.3616Z" fill="#F8F8F8"/>
</svg>
