<svg width="36" height="23" viewBox="0 0 36 23" fill="none" xmlns="http://www.w3.org/2000/svg">
<path d="M32.9996 3.06667H22.4998V0H32.9996V3.06667ZM35.5886 18.4C34.9256 20.3887 32.5451 23 27.9372 23C23.3262 23 19.5913 20.3489 19.5913 14.2983C19.5913 8.303 23.0788 5.221 27.7902 5.221C32.4132 5.221 35.2361 7.9534 35.8526 12.0075C35.9696 12.7834 36.0161 13.8291 35.9951 15.2889H23.9547C24.1497 20.2124 29.1792 20.3673 30.8367 18.4H35.5886ZM24.0597 12.2667H31.5072C31.3497 9.8946 29.8032 8.8642 27.7917 8.8642C25.5927 8.8642 24.3762 10.0418 24.0597 12.2667ZM9.6989 22.9816H0V0.0321999H10.4294C18.6433 0.1564 18.7993 8.37967 14.5093 10.6214C19.7008 12.5534 19.8748 22.9816 9.6989 22.9816ZM4.49995 9.2H9.87589C13.6379 9.2 14.2348 4.6 9.4079 4.6H4.49995V9.2ZM9.5864 13.8H4.49995V18.4245H9.5114C14.0938 18.4245 13.8134 13.8 9.5864 13.8Z" fill="#F8F8F8"/>
</svg>
